<svg width="18" height="16" viewBox="0 0 18 16" fill="none" xmlns="http://www.w3.org/2000/svg">
<path d="M15.2753 2.34106C12.0046 -0.780226 6.68305 -0.780226 3.41289 2.3403C0.142106 5.46083 0.142422 10.5388 3.41321 13.6599C6.68305 16.7803 12.0046 16.7803 15.275 13.6593C18.5455 10.5388 18.5453 5.46113 15.2753 2.34106ZM14.3601 12.7866C11.5943 15.4257 7.09379 15.426 4.32782 12.7869C1.56138 10.1473 1.56169 5.85246 4.32782 3.21333C7.09363 0.574341 11.594 0.574039 14.3604 3.21363C17.1262 5.85276 17.1259 10.1476 14.3601 12.7866ZM6.21523 5.8339C6.21523 5.31736 6.65427 4.89843 7.19561 4.89843C7.73679 4.89843 8.17583 5.31721 8.17583 5.8339C8.17583 6.35075 7.73679 6.76954 7.19561 6.76954C6.65427 6.76954 6.21523 6.35075 6.21523 5.8339ZM10.6605 5.8339C10.6605 5.31736 11.0999 4.89843 11.6412 4.89843C12.1824 4.89843 12.6215 5.31721 12.6215 5.8339C12.6215 6.35075 12.1826 6.76954 11.6412 6.76954C11.0999 6.76954 10.6605 6.35075 10.6605 5.8339ZM12.9783 9.66528C12.3707 11.006 10.9478 11.8722 9.35353 11.8722C7.72493 11.8722 6.29365 11.0016 5.70709 9.65412C5.60654 9.42345 5.72116 9.15855 5.96321 9.0626C6.02266 9.03922 6.08432 9.02805 6.14503 9.02805C6.33096 9.02805 6.5074 9.1329 6.58313 9.30714C7.02217 10.3158 8.10959 10.9672 9.35353 10.9672C10.5693 10.9672 11.6504 10.3153 12.1076 9.30609C12.2117 9.07663 12.4909 8.97088 12.7312 9.07029C12.9715 9.16971 13.0823 9.43598 12.9783 9.66528Z" fill="#AAAAAA"/>
</svg>
