<svg width="41" height="38" viewBox="0 0 41 38" fill="none" xmlns="http://www.w3.org/2000/svg">
<ellipse cx="20.32" cy="19" rx="19.912" ry="19" fill="#0CD03D"/>
<g clip-path="url(#clip0_80_8266)">
<path fill-rule="evenodd" clip-rule="evenodd" d="M22.7552 16.6762L17.4984 20.1588L12 18.4097C11.6162 18.2874 11.3577 17.9438 11.3599 17.5578C11.3621 17.1718 11.6236 16.8303 12.0089 16.7122L26.0664 12.3926C26.4005 12.2901 26.7673 12.3742 27.0155 12.611C27.2637 12.8479 27.3519 13.1978 27.2445 13.5167L22.7175 26.9303C22.5937 27.2979 22.2359 27.5475 21.8313 27.5496C21.4268 27.5517 21.0667 27.305 20.9385 26.9388L19.0966 21.6668L22.7552 16.6762Z" fill="white"/>
</g>
<defs>
<clipPath id="clip0_80_8266">
<rect width="15.9296" height="15.2" fill="white" transform="translate(11.3599 12.3496)"/>
</clipPath>
</defs>
</svg>
