<svg width="40" height="38" viewBox="0 0 40 38" fill="none" xmlns="http://www.w3.org/2000/svg">
<ellipse cx="19.9201" cy="19" rx="19.912" ry="19" fill="black" fill-opacity="0.02"/>
<path d="M39.3321 19C39.3321 29.1954 30.6634 37.5 19.9201 37.5C9.17676 37.5 0.508057 29.1954 0.508057 19C0.508057 8.80456 9.17676 0.5 19.9201 0.5C30.6634 0.5 39.3321 8.80456 39.3321 19Z" stroke="black" stroke-opacity="0.03"/>
<g clip-path="url(#clip0_80_8271)">
<path d="M25.5702 12.1338C23.8824 11.204 21.7177 11.7582 20.7438 13.3678L16.1262 20.9994C15.5213 21.9991 15.8818 23.2827 16.9294 23.8599C17.9776 24.4373 19.3229 24.0934 19.9278 23.0938L24.0009 16.362C24.2081 16.0195 24.085 15.5825 23.7267 15.3851C23.3684 15.1877 22.91 15.3044 22.7028 15.6469L18.6297 22.3787C18.4379 22.6957 18.012 22.8046 17.6789 22.6211C17.3467 22.438 17.2324 22.0316 17.4243 21.7146L22.0419 14.0829C22.6025 13.1564 23.8489 12.8373 24.8206 13.3726C25.7922 13.9079 26.1257 15.0974 25.5651 16.0239L20.7736 23.9429C19.8439 25.4794 17.7775 26.0084 16.1664 25.1208C14.5562 24.2337 14.0023 22.2612 14.932 20.7246L17.3678 16.6989C17.5746 16.3571 17.4525 15.9198 17.0934 15.722C16.7351 15.5246 16.2765 15.6419 16.0697 15.9838L13.6339 20.0095C12.2908 22.2292 13.0907 25.0779 15.417 26.3595C17.7432 27.641 20.7287 26.8777 22.0717 24.658L26.8632 16.739C27.8371 15.1294 27.2577 13.0635 25.5702 12.1338Z" fill="#0CD03D"/>
</g>
<defs>
<clipPath id="clip0_80_8271">
<rect width="16.768" height="16" fill="white" transform="translate(11.536 11)"/>
</clipPath>
</defs>
</svg>
