<svg width="25" height="24" viewBox="0 0 25 24" fill="none" xmlns="http://www.w3.org/2000/svg">
<path d="M12.5 22.5C6.71 22.5 2 17.79 2 12C2 6.21 6.71 1.5 12.5 1.5C18.29 1.5 23 6.21 23 12C23 17.79 18.29 22.5 12.5 22.5ZM12.5 3C7.535 3 3.5 7.035 3.5 12C3.5 16.965 7.535 21 12.5 21C17.465 21 21.5 16.965 21.5 12C21.5 7.035 17.465 3 12.5 3Z" fill="white"/>
<path d="M12.5 17.25C12.08 17.25 11.75 16.92 11.75 16.5V7.5C11.75 7.08 12.08 6.75 12.5 6.75C12.92 6.75 13.25 7.08 13.25 7.5V16.5C13.25 16.92 12.92 17.25 12.5 17.25Z" fill="white"/>
<path d="M17 12.75H8C7.58 12.75 7.25 12.42 7.25 12C7.25 11.58 7.58 11.25 8 11.25H17C17.42 11.25 17.75 11.58 17.75 12C17.75 12.42 17.42 12.75 17 12.75Z" fill="white"/>
</svg>
