<svg width="25" height="24" viewBox="0 0 25 24" fill="none" xmlns="http://www.w3.org/2000/svg">
<path d="M22.3193 6.48047C22.96 7.12109 23.4482 7.84766 23.7842 8.66016C24.1201 9.47266 24.292 10.3359 24.2998 11.25C24.2998 11.5234 24.292 11.8516 24.2764 12.2344C24.2607 12.6172 24.2295 13.0312 24.1826 13.4766C24.1357 13.9219 24.0615 14.3789 23.96 14.8477C23.8584 15.3164 23.7295 15.7813 23.5732 16.2422C23.3389 16.9141 23.0654 17.4609 22.7529 17.8828C22.4404 18.3047 22.1162 18.6367 21.7803 18.8789C21.4443 19.1211 21.1045 19.2852 20.7607 19.3711C20.417 19.457 20.0967 19.5 19.7998 19.5C19.542 19.5 19.3076 19.457 19.0967 19.3711C18.8857 19.2852 18.6826 19.168 18.4873 19.0195C18.292 18.8711 18.1123 18.7109 17.9482 18.5391C17.7842 18.3672 17.6162 18.1797 17.4443 17.9766C17.2803 17.7891 17.1201 17.6094 16.9639 17.4375C16.8076 17.2656 16.6396 17.1133 16.46 16.9805C16.2803 16.8477 16.1006 16.7344 15.9209 16.6406C15.7412 16.5469 15.5303 16.5 15.2881 16.5H9.31152C9.08496 16.5078 8.87793 16.5547 8.69043 16.6406C8.50293 16.7266 8.31934 16.8359 8.13965 16.9688C7.95996 17.1016 7.7959 17.2578 7.64746 17.4375C7.49902 17.6172 7.33496 17.7969 7.15527 17.9766C6.99121 18.1641 6.82715 18.3477 6.66309 18.5273C6.49902 18.707 6.31934 18.8711 6.12402 19.0195C5.92871 19.168 5.72559 19.2813 5.51465 19.3594C5.30371 19.4375 5.06543 19.4844 4.7998 19.5C4.50293 19.5 4.18262 19.457 3.83887 19.3711C3.49512 19.2852 3.15527 19.125 2.81934 18.8906C2.4834 18.6562 2.15918 18.3242 1.84668 17.8945C1.53418 17.4648 1.26074 16.9141 1.02637 16.2422C0.870117 15.7891 0.745117 15.3281 0.651367 14.8594C0.557617 14.3906 0.483398 13.9297 0.428711 13.4766C0.374023 13.0234 0.338867 12.6094 0.323242 12.2344C0.307617 11.8594 0.299805 11.5312 0.299805 11.25C0.299805 10.3437 0.467773 9.48438 0.803711 8.67188C1.13965 7.85937 1.63184 7.12891 2.28027 6.48047C2.91309 5.83984 3.63965 5.35156 4.45996 5.01562C5.28027 4.67969 6.14355 4.50781 7.0498 4.5H17.5498C18.4561 4.5 19.3154 4.66797 20.1279 5.00391C20.9404 5.33984 21.6709 5.83203 22.3193 6.48047ZM22.1553 15.75C22.3037 15.3359 22.4209 14.9062 22.5068 14.4609C22.5928 14.0156 22.6553 13.5898 22.6943 13.1836C22.7334 12.7773 22.7607 12.4023 22.7764 12.0586C22.792 11.7148 22.7998 11.4453 22.7998 11.25C22.7998 10.5234 22.6631 9.84375 22.3896 9.21094C22.1162 8.57812 21.7412 8.02344 21.2646 7.54688C20.7881 7.07031 20.2334 6.69531 19.6006 6.42188C18.9678 6.14844 18.2842 6.00781 17.5498 6H7.0498C6.32324 6 5.64355 6.13672 5.01074 6.41016C4.37793 6.68359 3.82324 7.05859 3.34668 7.53516C2.87012 8.01172 2.49512 8.56641 2.22168 9.19922C1.94824 9.83203 1.80762 10.5156 1.7998 11.25C1.7998 11.4531 1.80371 11.7227 1.81152 12.0586C1.81934 12.3945 1.84668 12.7656 1.89355 13.1719C1.94043 13.5781 2.00684 14.0078 2.09277 14.4609C2.17871 14.9141 2.2959 15.3437 2.44434 15.75C2.63965 16.3125 2.85449 16.7461 3.08887 17.0508C3.32324 17.3555 3.5498 17.5781 3.76855 17.7188C3.9873 17.8594 4.19043 17.9414 4.37793 17.9648C4.56543 17.9883 4.70605 18 4.7998 18C4.97168 18 5.15918 17.8984 5.3623 17.6953C5.56543 17.4922 5.78418 17.2578 6.01855 16.9922C6.20605 16.7734 6.40527 16.5508 6.61621 16.3242C6.82715 16.0977 7.06543 15.8867 7.33105 15.6914C7.59668 15.4961 7.88965 15.3359 8.20996 15.2109C8.53027 15.0859 8.88574 15.0156 9.27637 15H15.3232C15.7139 15.0156 16.0693 15.0859 16.3896 15.2109C16.71 15.3359 16.999 15.4922 17.2568 15.6797C17.5146 15.8672 17.7529 16.0781 17.9717 16.3125C18.1904 16.5469 18.3936 16.7734 18.5811 16.9922C18.8076 17.25 19.0225 17.4805 19.2256 17.6836C19.4287 17.8867 19.6201 17.9922 19.7998 18C19.8936 18 20.0303 17.9883 20.21 17.9648C20.3896 17.9414 20.5928 17.8594 20.8193 17.7188C21.0459 17.5781 21.2764 17.3555 21.5107 17.0508C21.7451 16.7461 21.96 16.3125 22.1553 15.75ZM6.2998 10.5H7.7998V12H6.2998V13.5H4.7998V12H3.2998V10.5H4.7998V9H6.2998V10.5ZM19.7998 12C20.0107 12 20.2061 12.0391 20.3857 12.1172C20.5654 12.1953 20.7217 12.3008 20.8545 12.4336C20.9873 12.5664 21.0967 12.7266 21.1826 12.9141C21.2686 13.1016 21.3076 13.2969 21.2998 13.5C21.2998 13.7109 21.2607 13.9063 21.1826 14.0859C21.1045 14.2656 20.999 14.4219 20.8662 14.5547C20.7334 14.6875 20.5732 14.7969 20.3857 14.8828C20.1982 14.9688 20.0029 15.0078 19.7998 15C19.5889 15 19.3936 14.9609 19.2139 14.8828C19.0342 14.8047 18.8779 14.6992 18.7451 14.5664C18.6123 14.4336 18.5029 14.2734 18.417 14.0859C18.3311 13.8984 18.292 13.7031 18.2998 13.5C18.2998 13.2891 18.3389 13.0937 18.417 12.9141C18.4951 12.7344 18.6006 12.5781 18.7334 12.4453C18.8662 12.3125 19.0264 12.2031 19.2139 12.1172C19.4014 12.0312 19.5967 11.9922 19.7998 12ZM16.7998 9C17.0107 9 17.2061 9.03906 17.3857 9.11719C17.5654 9.19531 17.7217 9.30078 17.8545 9.43359C17.9873 9.56641 18.0967 9.72656 18.1826 9.91406C18.2686 10.1016 18.3076 10.2969 18.2998 10.5C18.2998 10.7109 18.2607 10.9063 18.1826 11.0859C18.1045 11.2656 17.999 11.4219 17.8662 11.5547C17.7334 11.6875 17.5732 11.7969 17.3857 11.8828C17.1982 11.9688 17.0029 12.0078 16.7998 12C16.5889 12 16.3936 11.9609 16.2139 11.8828C16.0342 11.8047 15.8779 11.6992 15.7451 11.5664C15.6123 11.4336 15.5029 11.2734 15.417 11.0859C15.3311 10.8984 15.292 10.7031 15.2998 10.5C15.2998 10.2891 15.3389 10.0937 15.417 9.91406C15.4951 9.73438 15.6006 9.57812 15.7334 9.44531C15.8662 9.3125 16.0264 9.20313 16.2139 9.11719C16.4014 9.03125 16.5967 8.99219 16.7998 9Z" fill="#AEAEAE"/>
</svg>
