<svg width="25" height="24" viewBox="0 0 25 24" fill="none" xmlns="http://www.w3.org/2000/svg">
<path d="M10.9429 3.14941C11.9595 2.33305 13.5529 2.28692 14.6548 3.00684L14.8687 3.16113L21.4136 8.39648V8.39746C21.7915 8.70556 22.1195 9.18882 22.3306 9.74121C22.5406 10.2911 22.6188 10.8673 22.5464 11.3477L21.2876 18.8848C21.0386 20.3182 19.6434 21.5 18.1997 21.5H7.6001C6.2269 21.5 4.94299 20.4867 4.58252 19.1641L4.52295 18.8955L3.26318 11.3574V11.3564L3.23975 11.1709C3.20163 10.7279 3.28052 10.2244 3.46436 9.74219C3.64819 9.2601 3.92455 8.83066 4.24951 8.52441L4.39209 8.40039L10.9429 3.15039V3.14941ZM12.8999 13.75C12.2138 13.75 11.6499 14.3139 11.6499 15V18C11.6499 18.6861 12.2138 19.25 12.8999 19.25C13.586 19.25 14.1499 18.6861 14.1499 18V15C14.1499 14.3139 13.586 13.75 12.8999 13.75Z" stroke="#A2A2A2"/>
</svg>
