<svg width="25" height="24" viewBox="0 0 25 24" fill="none" xmlns="http://www.w3.org/2000/svg">
<path d="M12.2599 10.87C12.1599 10.86 12.0399 10.86 11.9299 10.87C9.54991 10.79 7.65991 8.84 7.65991 6.44C7.65991 3.99 9.63991 2 12.0999 2C14.5499 2 16.5399 3.99 16.5399 6.44C16.5299 8.84 14.6399 10.79 12.2599 10.87Z" stroke="#A2A2A2" stroke-width="1.5" stroke-linecap="round" stroke-linejoin="round"/>
<path d="M7.25982 14.56C4.83982 16.18 4.83982 18.82 7.25982 20.43C10.0098 22.27 14.5198 22.27 17.2698 20.43C19.6898 18.81 19.6898 16.17 17.2698 14.56C14.5298 12.73 10.0198 12.73 7.25982 14.56Z" stroke="#A2A2A2" stroke-width="1.5" stroke-linecap="round" stroke-linejoin="round"/>
</svg>
