<svg width="25" height="24" viewBox="0 0 25 24" fill="none" xmlns="http://www.w3.org/2000/svg">
<path d="M16.67 22.4475C16.688 21.7975 16.7 20.9925 16.7 20C16.7 18.2175 16.6615 17.038 16.6195 16.2795C16.5755 15.489 16.112 14.8325 15.3325 14.693C14.7455 14.588 13.8975 14.5 12.7 14.5C11.5025 14.5 10.655 14.5875 10.0675 14.693C9.28795 14.8325 8.82445 15.4885 8.78045 16.2795C8.73845 17.038 8.69995 18.217 8.69995 20C8.69995 20.992 8.71195 21.7975 8.72995 22.4475M3.74495 3.458C4.08345 2.556 4.85645 1.903 5.81445 1.797C7.09445 1.6555 9.27745 1.5 12.7 1.5C16.1225 1.5 18.305 1.655 19.5855 1.797C20.5435 1.9035 21.3165 2.556 21.6545 3.458C23.2 7.5815 23.2 8.868 23.2 8.868C23.2004 9.21318 23.1329 9.55507 23.0012 9.87415C22.8695 10.1932 22.6763 10.4833 22.4326 10.7277C22.1888 10.9721 21.8993 11.1661 21.5806 11.2986C21.2618 11.4311 20.9201 11.4995 20.575 11.5C19.125 11.5 17.95 10.322 17.95 8.8685C17.9507 9.56553 17.6746 10.2343 17.1824 10.7278C16.6901 11.2213 16.022 11.4991 15.325 11.5C13.875 11.5 12.7 10.322 12.7 8.8685C12.7007 9.56553 12.4246 10.2343 11.9324 10.7278C11.4401 11.2213 10.772 11.4991 10.075 11.5C8.62495 11.5 7.44995 10.322 7.44995 8.8685C7.45075 9.56553 7.17465 10.2343 6.68238 10.7278C6.19011 11.2213 5.52199 11.4991 4.82495 11.5C3.37495 11.5 2.19995 10.322 2.19995 8.8685C2.19995 8.8685 2.19995 7.581 3.74495 3.458Z" stroke="#AEAEAE" stroke-width="1.5" stroke-linecap="round" stroke-linejoin="round"/>
<path d="M3.19995 10.9351V15.0001C3.19995 17.2231 3.28945 18.8816 3.38895 20.0376C3.49745 21.3056 4.49695 22.2416 5.76695 22.3191C7.23645 22.4091 9.50895 22.5001 12.7 22.5001C15.891 22.5001 18.1635 22.4091 19.633 22.3191C20.903 22.2416 21.9025 21.3056 22.011 20.0376C22.111 18.8816 22.2 17.2231 22.2 15.0001V10.9351" stroke="#AEAEAE" stroke-width="1.5" stroke-linecap="round" stroke-linejoin="round"/>
</svg>
